REM COMMENT "Generated by IcecastMetadataRecorder https://github.com/eshaz/icecast-metadata-js"
REM BR "16"
REM METAINT "64"
REM DATE "2020-07-29T21:16:11.222Z"
TITLE "isics-all"
FILE "isics-all.mp3" WAVE
  TRACK 1 AUDIO
    TITLE "2020-07-29T21:16:11.222Z TO:5105 Department of Public Safety - Area B Law 5B - DPS District #5 + #6 FROM:10971"
    INDEX 01 00:00:00
  TRACK 2 AUDIO
    TITLE "2020-07-29T21:16:12.446Z TO:52200 Mercy ONE Iowa Ground Dispatch FROM:10779527"
    INDEX 01 00:01:17
  TRACK 3 AUDIO
    TITLE "2020-07-29T21:16:28.574Z TO:1102 Polk County - Westcom Law Enforcement 2 FROM:1373"
    INDEX 01 00:17:26
  TRACK 4 AUDIO
    TITLE "2020-07-29T21:16:38.366Z TO:52200 Mercy ONE Iowa Ground Dispatch FROM:10779510"
    INDEX 01 00:27:11
  TRACK 5 AUDIO
    TITLE "2020-07-29T21:16:40.454Z TO:1102 Polk County - Westcom Law Enforcement 2 FROM:1006"
    INDEX 01 00:29:17
  TRACK 6 AUDIO
    TITLE "2020-07-29T21:16:43.262Z TO:1102 Polk County - Westcom Law Enforcement 2 FROM:1373"
    INDEX 01 00:32:03
  TRACK 7 AUDIO
    TITLE "2020-07-29T21:16:45.350Z TO:24756 Dallas County Fire Repeater Patch FROM:2559984"
    INDEX 01 00:34:10
  TRACK 8 AUDIO
    TITLE "2020-07-29T21:17:11.990Z TO:1102 Polk County - Westcom Law Enforcement 2 FROM:1006"
    INDEX 01 01:00:58
  TRACK 9 AUDIO
    TITLE "2020-07-29T21:17:14.726Z TO:24631 Dallas County Fire/EMS Operations FROM:2520309"
    INDEX 01 01:03:38
  TRACK 10 AUDIO
    TITLE "END"
    INDEX 01 01:06:29